<mxfile host="Electron" agent="Mozilla/5.0 (Windows NT 10.0; Win64; x64) AppleWebKit/537.36 (KHTML, like Gecko) draw.io/26.0.4 Chrome/128.0.6613.186 Electron/32.2.5 Safari/537.36" version="26.0.4">
  <diagram name="Página-1" id="s3OMrO0p6jmiYu_DmSFK">
    <mxGraphModel dx="2944" dy="2959" grid="1" gridSize="10" guides="1" tooltips="1" connect="1" arrows="1" fold="1" page="1" pageScale="1" pageWidth="827" pageHeight="1169" math="0" shadow="0">
      <root>
        <mxCell id="0" />
        <mxCell id="1" parent="0" />
        <mxCell id="gdCvDjqRngSQcII96v-0-36" style="edgeStyle=orthogonalEdgeStyle;rounded=0;orthogonalLoop=1;jettySize=auto;html=1;" parent="1" source="3x31MsnCpi4qH06DEA2G-2" target="3x31MsnCpi4qH06DEA2G-37" edge="1">
          <mxGeometry relative="1" as="geometry">
            <Array as="points">
              <mxPoint x="-484" y="-1119" />
            </Array>
          </mxGeometry>
        </mxCell>
        <mxCell id="3x31MsnCpi4qH06DEA2G-2" value="" style="rounded=0;whiteSpace=wrap;html=1;" parent="1" vertex="1">
          <mxGeometry x="-750" y="-1160" width="232.5" height="81.5" as="geometry" />
        </mxCell>
        <mxCell id="3x31MsnCpi4qH06DEA2G-3" value="&lt;span style=&quot;font-size: 14px;&quot;&gt;&lt;b&gt;IDS_SNORT&lt;/b&gt;&lt;/span&gt;" style="text;html=1;align=center;verticalAlign=middle;whiteSpace=wrap;rounded=0;fontFamily=Helvetica;fontSize=26;fontColor=default;" parent="1" vertex="1">
          <mxGeometry x="-692.94" y="-1160" width="118.38" height="20" as="geometry" />
        </mxCell>
        <mxCell id="3x31MsnCpi4qH06DEA2G-4" value="&lt;span style=&quot;font-size: 14px; font-weight: 400;&quot;&gt;&lt;i&gt;Analyzes the number of packets of suspicious traffic entering the switches&lt;/i&gt;&lt;/span&gt;" style="text;whiteSpace=wrap;html=1;align=center;fontStyle=1;fontSize=10;" parent="1" vertex="1">
          <mxGeometry x="-743.75" y="-1140" width="220" height="50" as="geometry" />
        </mxCell>
        <mxCell id="3x31MsnCpi4qH06DEA2G-40" value="" style="edgeStyle=orthogonalEdgeStyle;rounded=0;orthogonalLoop=1;jettySize=auto;html=1;" parent="1" source="3x31MsnCpi4qH06DEA2G-37" target="3x31MsnCpi4qH06DEA2G-39" edge="1">
          <mxGeometry relative="1" as="geometry" />
        </mxCell>
        <mxCell id="94CjwlbmknySxOoL_Qpq-2" value="" style="edgeStyle=orthogonalEdgeStyle;rounded=0;orthogonalLoop=1;jettySize=auto;html=1;endArrow=none;endFill=0;dashed=1;startArrow=classic;startFill=1;" parent="1" source="3x31MsnCpi4qH06DEA2G-37" target="94CjwlbmknySxOoL_Qpq-1" edge="1">
          <mxGeometry relative="1" as="geometry" />
        </mxCell>
        <mxCell id="3x31MsnCpi4qH06DEA2G-37" value="&lt;p style=&quot;line-height: 90%;&quot;&gt;&lt;span style=&quot;font-size: 13px;&quot;&gt;&lt;b&gt;Traffic analyzed by IDS&lt;/b&gt;&lt;/span&gt;&lt;br&gt;&lt;/p&gt;" style="text;html=1;align=center;verticalAlign=middle;whiteSpace=wrap;rounded=0;fontFamily=Helvetica;fontSize=26;fillColor=none;strokeColor=default;" parent="1" vertex="1">
          <mxGeometry x="-577.1999999999999" y="-1062" width="186.78" height="30" as="geometry" />
        </mxCell>
        <mxCell id="3x31MsnCpi4qH06DEA2G-51" style="edgeStyle=orthogonalEdgeStyle;rounded=0;orthogonalLoop=1;jettySize=auto;html=1;entryX=0.5;entryY=0;entryDx=0;entryDy=0;" parent="1" source="3x31MsnCpi4qH06DEA2G-39" target="3x31MsnCpi4qH06DEA2G-44" edge="1">
          <mxGeometry relative="1" as="geometry" />
        </mxCell>
        <mxCell id="3x31MsnCpi4qH06DEA2G-61" style="edgeStyle=orthogonalEdgeStyle;rounded=0;orthogonalLoop=1;jettySize=auto;html=1;entryX=0.5;entryY=0;entryDx=0;entryDy=0;" parent="1" source="3x31MsnCpi4qH06DEA2G-39" target="3x31MsnCpi4qH06DEA2G-58" edge="1">
          <mxGeometry relative="1" as="geometry" />
        </mxCell>
        <mxCell id="3x31MsnCpi4qH06DEA2G-39" value="&lt;font style=&quot;font-size: 12px;&quot;&gt;&lt;span style=&quot;font-family: &amp;quot;Arial Narrow&amp;quot;, sans-serif; text-align: justify; background-color: initial;&quot;&gt;&lt;br&gt;&lt;/span&gt;&lt;/font&gt;&lt;p style=&quot;margin-left:36.0pt;text-align:justify&quot; class=&quot;MsoNormal&quot;&gt;&lt;span style=&quot;font-family:&amp;quot;Arial Narrow&amp;quot;,sans-serif&quot; lang=&quot;ES&quot;&gt;&lt;/span&gt;&lt;/p&gt;" style="rhombus;whiteSpace=wrap;html=1;" parent="1" vertex="1">
          <mxGeometry x="-528.75" y="-1004.5" width="89.89" height="73.5" as="geometry" />
        </mxCell>
        <mxCell id="3x31MsnCpi4qH06DEA2G-42" value="&lt;span style=&quot;text-wrap: wrap;&quot;&gt;n_pakts&amp;nbsp;&lt;/span&gt;&lt;span style=&quot;text-wrap: wrap; background-color: initial; font-family: &amp;quot;Arial Narrow&amp;quot;, sans-serif; text-align: justify;&quot;&gt;≥ Reglas Snort&lt;/span&gt;" style="text;html=1;align=center;verticalAlign=middle;resizable=0;points=[];autosize=1;strokeColor=none;fillColor=none;fontStyle=2" parent="1" vertex="1">
          <mxGeometry x="-553.81" y="-979.75" width="140" height="30" as="geometry" />
        </mxCell>
        <mxCell id="gdCvDjqRngSQcII96v-0-38" style="edgeStyle=orthogonalEdgeStyle;rounded=0;orthogonalLoop=1;jettySize=auto;html=1;" parent="1" source="3x31MsnCpi4qH06DEA2G-44" target="3x31MsnCpi4qH06DEA2G-52" edge="1">
          <mxGeometry relative="1" as="geometry" />
        </mxCell>
        <mxCell id="3x31MsnCpi4qH06DEA2G-44" value="&lt;font&gt;&lt;b&gt;Alert Generated&lt;/b&gt;&lt;br&gt;&lt;i&gt;DoS Attack Detected&lt;/i&gt;&lt;br&gt;&lt;/font&gt;" style="rounded=0;whiteSpace=wrap;html=1;" parent="1" vertex="1">
          <mxGeometry x="-433.6" y="-947" width="173.6" height="38.5" as="geometry" />
        </mxCell>
        <mxCell id="3x31MsnCpi4qH06DEA2G-56" value="" style="edgeStyle=orthogonalEdgeStyle;rounded=0;orthogonalLoop=1;jettySize=auto;html=1;" parent="1" source="3x31MsnCpi4qH06DEA2G-52" target="3x31MsnCpi4qH06DEA2G-54" edge="1">
          <mxGeometry relative="1" as="geometry" />
        </mxCell>
        <mxCell id="3x31MsnCpi4qH06DEA2G-52" value="&lt;font&gt;&lt;b&gt;Extract Attacker Information&lt;/b&gt;&lt;br&gt;&lt;i style=&quot;&quot;&gt;IPv4: IP Origen, IP destino&lt;br&gt;MAC: MAC origen, MAC destino&lt;/i&gt;&lt;/font&gt;" style="rounded=0;whiteSpace=wrap;html=1;" parent="1" vertex="1">
          <mxGeometry x="-445.36" y="-888.75" width="198.6" height="58.5" as="geometry" />
        </mxCell>
        <mxCell id="3x31MsnCpi4qH06DEA2G-67" style="edgeStyle=orthogonalEdgeStyle;rounded=0;orthogonalLoop=1;jettySize=auto;html=1;entryX=0.5;entryY=0;entryDx=0;entryDy=0;" parent="1" source="3x31MsnCpi4qH06DEA2G-54" target="3x31MsnCpi4qH06DEA2G-65" edge="1">
          <mxGeometry relative="1" as="geometry">
            <Array as="points">
              <mxPoint x="-360.38" y="-707" />
              <mxPoint x="-483.37999999999994" y="-707" />
            </Array>
          </mxGeometry>
        </mxCell>
        <mxCell id="gdCvDjqRngSQcII96v-0-39" style="edgeStyle=orthogonalEdgeStyle;rounded=0;orthogonalLoop=1;jettySize=auto;html=1;entryX=0;entryY=0.5;entryDx=0;entryDy=0;" parent="1" source="3x31MsnCpi4qH06DEA2G-54" target="uqmx0J0vCGjWTDLTTVXI-3" edge="1">
          <mxGeometry relative="1" as="geometry" />
        </mxCell>
        <mxCell id="3x31MsnCpi4qH06DEA2G-54" value="&lt;font&gt;&lt;b&gt;Send alert to controller&lt;/b&gt;&lt;br&gt;Contains the attacker information obtained by the IDS.&lt;/font&gt;" style="rounded=0;whiteSpace=wrap;html=1;" parent="1" vertex="1">
          <mxGeometry x="-436.56000000000006" y="-797" width="181" height="60" as="geometry" />
        </mxCell>
        <mxCell id="3x31MsnCpi4qH06DEA2G-66" style="edgeStyle=orthogonalEdgeStyle;rounded=0;orthogonalLoop=1;jettySize=auto;html=1;entryX=0.5;entryY=0;entryDx=0;entryDy=0;" parent="1" source="3x31MsnCpi4qH06DEA2G-58" target="3x31MsnCpi4qH06DEA2G-65" edge="1">
          <mxGeometry relative="1" as="geometry">
            <Array as="points">
              <mxPoint x="-617.38" y="-707" />
              <mxPoint x="-483.37999999999994" y="-707" />
            </Array>
          </mxGeometry>
        </mxCell>
        <mxCell id="3x31MsnCpi4qH06DEA2G-58" value="&lt;font&gt;&lt;b style=&quot;&quot;&gt;Normal Traffic&lt;/b&gt;&lt;br&gt;&lt;i&gt;No alert generated&lt;/i&gt;&lt;br&gt;&lt;/font&gt;" style="rounded=0;whiteSpace=wrap;html=1;" parent="1" vertex="1">
          <mxGeometry x="-690.03" y="-878.75" width="146.22" height="38.5" as="geometry" />
        </mxCell>
        <mxCell id="3x31MsnCpi4qH06DEA2G-62" value="&lt;i&gt;si&lt;/i&gt;" style="text;html=1;align=center;verticalAlign=middle;whiteSpace=wrap;rounded=0;" parent="1" vertex="1">
          <mxGeometry x="-407.16" y="-992" width="23.78" height="20" as="geometry" />
        </mxCell>
        <mxCell id="3x31MsnCpi4qH06DEA2G-63" value="&lt;i&gt;no&lt;/i&gt;" style="text;html=1;align=center;verticalAlign=middle;whiteSpace=wrap;rounded=0;" parent="1" vertex="1">
          <mxGeometry x="-583.81" y="-992" width="40" height="20" as="geometry" />
        </mxCell>
        <mxCell id="3x31MsnCpi4qH06DEA2G-71" style="edgeStyle=orthogonalEdgeStyle;rounded=0;orthogonalLoop=1;jettySize=auto;html=1;entryX=0;entryY=0.5;entryDx=0;entryDy=0;" parent="1" source="3x31MsnCpi4qH06DEA2G-65" target="3x31MsnCpi4qH06DEA2G-37" edge="1">
          <mxGeometry relative="1" as="geometry">
            <Array as="points">
              <mxPoint x="-710.03" y="-666" />
              <mxPoint x="-710.03" y="-1047" />
            </Array>
          </mxGeometry>
        </mxCell>
        <mxCell id="3x31MsnCpi4qH06DEA2G-65" value="&lt;span style=&quot;font-size: 11px;&quot;&gt;&lt;b&gt;Snort continues to analyze traffic&lt;/b&gt;&lt;/span&gt;" style="rounded=0;whiteSpace=wrap;html=1;" parent="1" vertex="1">
          <mxGeometry x="-543.8" y="-685" width="120" height="38" as="geometry" />
        </mxCell>
        <mxCell id="uqmx0J0vCGjWTDLTTVXI-3" value="" style="rounded=0;whiteSpace=wrap;html=1;" parent="1" vertex="1">
          <mxGeometry x="-231.2" y="-807" width="178.76" height="80" as="geometry" />
        </mxCell>
        <mxCell id="uqmx0J0vCGjWTDLTTVXI-4" value="&lt;span style=&quot;font-size: 14px;&quot;&gt;&lt;b&gt;IDS_SNORT&lt;/b&gt;&lt;/span&gt;" style="text;html=1;align=center;verticalAlign=middle;whiteSpace=wrap;rounded=0;fontFamily=Helvetica;fontSize=26;fontColor=default;" parent="1" vertex="1">
          <mxGeometry x="-201.01" y="-804.25" width="118.38" height="20" as="geometry" />
        </mxCell>
        <mxCell id="uqmx0J0vCGjWTDLTTVXI-5" value="&lt;span style=&quot;font-size: 14px; font-weight: 400;&quot;&gt;&lt;i&gt;Send the alert via a TCP socket to port 51234 of the controller.&lt;/i&gt;&lt;/span&gt;" style="text;whiteSpace=wrap;html=1;align=center;fontStyle=1;fontSize=10;" parent="1" vertex="1">
          <mxGeometry x="-221.82" y="-787.25" width="160" height="40.5" as="geometry" />
        </mxCell>
        <mxCell id="94CjwlbmknySxOoL_Qpq-1" value="&lt;p style=&quot;line-height: 90%;&quot;&gt;&lt;font style=&quot;font-size: 13px;&quot;&gt;Rules defined in the IDS&lt;/font&gt;&lt;/p&gt;" style="text;html=1;align=center;verticalAlign=middle;whiteSpace=wrap;rounded=0;fontFamily=Helvetica;fontSize=26;fillColor=none;strokeColor=default;dashed=1;" parent="1" vertex="1">
          <mxGeometry x="-341.9899999999999" y="-1062" width="186.78" height="30" as="geometry" />
        </mxCell>
        <mxCell id="gdCvDjqRngSQcII96v-0-8" value="" style="edgeStyle=orthogonalEdgeStyle;rounded=0;orthogonalLoop=1;jettySize=auto;html=1;" parent="1" source="gdCvDjqRngSQcII96v-0-3" target="gdCvDjqRngSQcII96v-0-7" edge="1">
          <mxGeometry relative="1" as="geometry" />
        </mxCell>
        <mxCell id="gdCvDjqRngSQcII96v-0-3" value="" style="rounded=0;whiteSpace=wrap;html=1;" parent="1" vertex="1">
          <mxGeometry x="-1220" y="-1170.5" width="310" height="90" as="geometry" />
        </mxCell>
        <mxCell id="gdCvDjqRngSQcII96v-0-4" value="&lt;span style=&quot;font-size: 14px;&quot;&gt;&lt;b&gt;SDN Controller&lt;/b&gt;&lt;/span&gt;" style="text;html=1;align=center;verticalAlign=middle;whiteSpace=wrap;rounded=0;fontFamily=Helvetica;fontSize=26;fontColor=default;" parent="1" vertex="1">
          <mxGeometry x="-1124.19" y="-1167.5" width="118.38" height="20" as="geometry" />
        </mxCell>
        <mxCell id="gdCvDjqRngSQcII96v-0-6" value="&lt;span style=&quot;font-size: 14px; font-weight: 400;&quot;&gt;&lt;i&gt;Generates a one-second window of packets entering the network to identify bulk traffic patterns&amp;nbsp;&lt;/i&gt;&lt;/span&gt;" style="text;whiteSpace=wrap;html=1;align=center;fontStyle=1;fontSize=10;" parent="1" vertex="1">
          <mxGeometry x="-1210" y="-1147.5" width="290" height="50" as="geometry" />
        </mxCell>
        <mxCell id="gdCvDjqRngSQcII96v-0-20" style="edgeStyle=orthogonalEdgeStyle;rounded=0;orthogonalLoop=1;jettySize=auto;html=1;entryX=0.5;entryY=0;entryDx=0;entryDy=0;" parent="1" source="gdCvDjqRngSQcII96v-0-7" target="gdCvDjqRngSQcII96v-0-13" edge="1">
          <mxGeometry relative="1" as="geometry">
            <Array as="points">
              <mxPoint x="-974" y="-989" />
              <mxPoint x="-907" y="-990" />
            </Array>
          </mxGeometry>
        </mxCell>
        <mxCell id="gdCvDjqRngSQcII96v-0-37" style="edgeStyle=orthogonalEdgeStyle;rounded=0;orthogonalLoop=1;jettySize=auto;html=1;entryX=0.5;entryY=0;entryDx=0;entryDy=0;" parent="1" source="gdCvDjqRngSQcII96v-0-7" target="gdCvDjqRngSQcII96v-0-10" edge="1">
          <mxGeometry relative="1" as="geometry">
            <mxPoint x="-1200" y="-890" as="targetPoint" />
            <Array as="points">
              <mxPoint x="-1198" y="-989" />
            </Array>
          </mxGeometry>
        </mxCell>
        <mxCell id="gdCvDjqRngSQcII96v-0-7" value="&lt;font style=&quot;font-size: 12px;&quot;&gt;&lt;span style=&quot;font-family: &amp;quot;Arial Narrow&amp;quot;, sans-serif; text-align: justify; background-color: initial;&quot;&gt;&lt;br&gt;&lt;/span&gt;&lt;/font&gt;&lt;p style=&quot;margin-left:36.0pt;text-align:justify&quot; class=&quot;MsoNormal&quot;&gt;&lt;span style=&quot;font-family:&amp;quot;Arial Narrow&amp;quot;,sans-serif&quot; lang=&quot;ES&quot;&gt;&lt;/span&gt;&lt;/p&gt;" style="rhombus;whiteSpace=wrap;html=1;" parent="1" vertex="1">
          <mxGeometry x="-1135.53" y="-1050" width="141.05" height="121.25" as="geometry" />
        </mxCell>
        <mxCell id="gdCvDjqRngSQcII96v-0-9" value="&lt;font style=&quot;font-size: 13px;&quot;&gt;&lt;span style=&quot;text-wrap: wrap;&quot;&gt;#_pakts&amp;nbsp;&lt;/span&gt;&lt;span style=&quot;text-wrap: wrap; background-color: initial; font-family: &amp;quot;Arial Narrow&amp;quot;, sans-serif; text-align: justify;&quot;&gt;≥ 1000 pkts &lt;br&gt;ICMP/TCP/UDP&lt;/span&gt;&lt;/font&gt;&lt;div&gt;&lt;span style=&quot;text-wrap: wrap; background-color: initial; font-family: &amp;quot;Arial Narrow&amp;quot;, sans-serif; text-align: justify;&quot;&gt;&lt;font style=&quot;font-size: 13px;&quot;&gt;en 1s&lt;/font&gt;&lt;/span&gt;&lt;/div&gt;" style="text;html=1;align=center;verticalAlign=middle;resizable=0;points=[];autosize=1;strokeColor=none;fillColor=none;fontStyle=2" parent="1" vertex="1">
          <mxGeometry x="-1130.01" y="-1019.38" width="130" height="60" as="geometry" />
        </mxCell>
        <mxCell id="gdCvDjqRngSQcII96v-0-32" style="edgeStyle=orthogonalEdgeStyle;rounded=0;orthogonalLoop=1;jettySize=auto;html=1;entryX=0.5;entryY=0;entryDx=0;entryDy=0;" parent="1" source="gdCvDjqRngSQcII96v-0-10" target="gdCvDjqRngSQcII96v-0-26" edge="1">
          <mxGeometry relative="1" as="geometry">
            <Array as="points">
              <mxPoint x="-1198" y="-730" />
              <mxPoint x="-1065" y="-730" />
            </Array>
          </mxGeometry>
        </mxCell>
        <mxCell id="gdCvDjqRngSQcII96v-0-10" value="&lt;font&gt;&lt;b style=&quot;&quot;&gt;Normal Traffic&lt;/b&gt;&lt;br&gt;&lt;i&gt;Continuous switching&lt;/i&gt;&lt;br&gt;&lt;/font&gt;" style="rounded=0;whiteSpace=wrap;html=1;" parent="1" vertex="1">
          <mxGeometry x="-1271.23" y="-882.12" width="146.22" height="38.5" as="geometry" />
        </mxCell>
        <mxCell id="gdCvDjqRngSQcII96v-0-28" value="" style="edgeStyle=orthogonalEdgeStyle;rounded=0;orthogonalLoop=1;jettySize=auto;html=1;" parent="1" source="gdCvDjqRngSQcII96v-0-13" target="gdCvDjqRngSQcII96v-0-22" edge="1">
          <mxGeometry relative="1" as="geometry" />
        </mxCell>
        <mxCell id="gdCvDjqRngSQcII96v-0-13" value="&lt;font&gt;&lt;b&gt;Traffic is considered suspicious&amp;nbsp;&lt;/b&gt;&lt;/font&gt;&lt;div&gt;&lt;font&gt;Needs to be analyzed by IDS&lt;/font&gt;&lt;/div&gt;" style="rounded=0;whiteSpace=wrap;html=1;" parent="1" vertex="1">
          <mxGeometry x="-1020" y="-959.38" width="230" height="38.5" as="geometry" />
        </mxCell>
        <mxCell id="gdCvDjqRngSQcII96v-0-21" value="&lt;font&gt;&lt;b style=&quot;&quot;&gt;SDN Controller&lt;br&gt;&lt;/b&gt;Identifies the switch under attack and modifies the flow rule to redirect the attacker&#39;s traffic to the port connected to the IDS.&lt;/font&gt;" style="rounded=0;whiteSpace=wrap;html=1;" parent="1" vertex="1">
          <mxGeometry x="-1020" y="-905" width="230" height="80" as="geometry" />
        </mxCell>
        <mxCell id="gdCvDjqRngSQcII96v-0-35" style="edgeStyle=orthogonalEdgeStyle;rounded=0;orthogonalLoop=1;jettySize=auto;html=1;entryX=0;entryY=0.5;entryDx=0;entryDy=0;" parent="1" source="gdCvDjqRngSQcII96v-0-22" target="3x31MsnCpi4qH06DEA2G-2" edge="1">
          <mxGeometry relative="1" as="geometry" />
        </mxCell>
        <mxCell id="gdCvDjqRngSQcII96v-0-22" value="&lt;font&gt;&lt;b style=&quot;&quot;&gt;&amp;nbsp;SDN Switch&lt;br&gt;&lt;/b&gt;Gets the modified rule and starts redirecting the attacker&#39;s traffic to IDS&lt;/font&gt;" style="rounded=0;whiteSpace=wrap;html=1;" parent="1" vertex="1">
          <mxGeometry x="-1020" y="-808.5" width="230" height="65.75" as="geometry" />
        </mxCell>
        <mxCell id="gdCvDjqRngSQcII96v-0-26" value="&lt;b&gt;&lt;font style=&quot;font-size: 15px;&quot;&gt;Fin&lt;/font&gt;&lt;/b&gt;" style="ellipse;whiteSpace=wrap;html=1;aspect=fixed;" parent="1" vertex="1">
          <mxGeometry x="-1094.01" y="-685" width="58" height="58" as="geometry" />
        </mxCell>
      </root>
    </mxGraphModel>
  </diagram>
</mxfile>
